<svg width="686" height="135" viewBox="0 0 686 135" xmlns="http://www.w3.org/2000/svg" xmlns:xlink="http://www.w3.org/1999/xlink"><defs><path id="a" d="M177.04.437H.06V67.64h353.96V.438H177.04z"/></defs><g fill="none" fill-rule="evenodd"><path d="M26.155 117.306c0-11.278-4.715-13.546-14.01-13.592-1.18 0-2.45.046-3.81.09v26.743c1.586.09 3.083.136 4.444.136 8.84 0 13.375-2.177 13.375-13.377zM3.98 134.31v-34.224c2.36-.044 4.717-.09 6.984-.09 6.303.046 11.972.635 15.644 4.172 2.677 2.54 4.31 6.666 4.31 13.138 0 6.94-1.77 11.11-4.673 13.605-3.31 2.812-8.116 3.446-13.422 3.537-2.448.045-6.03-.046-8.842-.136zM45.335 121.16H56.99l-5.806-16.63-5.85 16.63zm3.763-21.074h4.852l12.787 34.225H61.66l-3.54-9.884H44.156l-3.49 9.885h-4.67l13.103-34.224zM67.398 100.086H95.24v3.81l-11.88-.09.044 30.505H78.96l.046-30.505-11.608.09v-3.81M105.19 121.16h11.655l-5.803-16.63-5.85 16.63zm3.765-21.074h4.852l12.787 34.225h-5.078l-3.538-9.884h-13.966l-3.49 9.885h-4.67l13.103-34.224zM172.383 117.306c0-11.278-4.716-13.546-14.012-13.592-1.18 0-2.448.046-3.808.09v26.743c1.586.09 3.083.136 4.445.136 8.84 0 13.376-2.177 13.376-13.377zM150.21 134.31v-34.224c2.356-.044 4.715-.09 6.98-.09 6.305.046 11.974.635 15.646 4.172 2.676 2.54 4.31 6.666 4.31 13.138 0 6.94-1.77 11.11-4.673 13.605-3.31 2.812-8.116 3.446-13.422 3.537-2.447.045-6.03-.046-8.84-.136zM191.03 103.714l.047 12.69h5.033c2.31 0 5.17-.046 6.937-.858 1.587-.722 3.082-2.536 3.082-5.392 0-2.132-.68-3.718-1.95-4.76-1.54-1.27-3.944-1.815-6.937-1.815-2.993 0-6.213.134-6.213.134zm7.89 16.268c-1.313.09-2.494.09-3.084.09h-4.714l.09 14.24h-4.49l-.044-34.18s6.575-.135 10.292-.135c3.856 0 6.62.272 9.16 1.814 2.766 1.633 4.49 4.354 4.49 8.525 0 3.628-1.995 6.746-5.396 8.376-.545.274-1.134.5-1.768.638l9.113 14.963h-5.398l-8.252-14.328zM220.658 134.31h4.443v-34.224h-4.442M233.124 100.086h4.85l9.39 29.826 9.566-29.826h4.944l-11.882 34.225h-5.713l-11.156-34.224M269.846 100.086h20.496v3.856l-16.142-.046-.045 11.155h13.738v3.707h-13.738v11.7l16.55-.092v3.946h-20.86v-34.224M299.442 100.086h5.623l18.274 28.512-.273-28.512h4.308v34.225h-5.533l-18.41-29.008.272 29.01h-4.262v-34.226M354.344 100.086h20.497v3.856l-16.142-.046-.045 11.155h13.74v3.707h-13.74v11.7l16.552-.092v3.946h-20.86v-34.224M395.54 119.12l-9.116 15.19h-4.804l11.334-18.177-9.792-16.047h5.17l7.706 12.924 7.255-12.924h4.717l-9.25 16.047 10.745 18.178h-5.258l-8.707-15.19M421.343 103.714l.046 13.23h4.898c1.268 0 4.532.273 6.8-1.307 1.18-.813 2.586-2.582 2.586-5.21 0-2.36-.68-4.037-1.998-5.125-1.45-1.225-3.628-1.723-6.347-1.723-2.857 0-5.987.134-5.987.134zm-4.308-3.582s6.396-.135 9.977-.135c3.718 0 6.395.453 8.84 2.04 2.68 1.723 4.174 4.308 4.174 8.57 0 3.763-2.448 7.108-5.713 8.695-1.678.816-3.854 1.315-7.98 1.315h-4.9l.092 13.694h-4.49v-34.178zM447.89 100.086h20.496v3.856l-16.143-.046-.046 11.155h13.742v3.707h-13.743v11.7l16.553-.092v3.946h-20.86v-34.224M481.816 103.714l.045 12.69h5.035c2.312 0 5.17-.046 6.938-.858 1.588-.722 3.084-2.536 3.084-5.392 0-2.132-.68-3.718-1.95-4.76-1.543-1.27-3.945-1.815-6.937-1.815-2.994 0-6.214.134-6.214.134zm7.89 16.268c-1.315.09-2.494.09-3.083.09h-4.717l.092 14.24h-4.49l-.046-34.18s6.576-.135 10.294-.135c3.856 0 6.62.272 9.16 1.814 2.768 1.633 4.49 4.354 4.49 8.525 0 3.628-1.995 6.746-5.396 8.376-.544.274-1.135.5-1.77.638l9.116 14.963h-5.397l-8.254-14.328zM511.443 134.31h4.444v-34.224h-4.444M526.785 100.086h20.496v3.856l-16.142-.046-.047 11.155h13.743v3.707H531.09v11.7l16.554-.092v3.946h-20.86v-34.224M556.38 100.086h5.624l18.272 28.512-.27-28.512h4.307v34.225h-5.53l-18.41-29.008.27 29.01h-4.264v-34.226M593.733 117.577c0-11.14 6.257-17.943 15.327-17.943 10.203 0 12.923 8.344 12.923 8.344l-3.855 1.723s-2.086-6.257-9.16-6.257c-6.438 0-10.475 5.713-10.475 14.09 0 8.39 3.764 13.602 10.43 13.602 7.438 0 9.432-6.845 9.432-6.845l4.035 1.27s-2.402 9.43-13.558 9.43c-8.75 0-15.1-5.85-15.1-17.413M630.7 100.086h20.496v3.856l-16.144-.046-.045 11.155h13.74v3.707h-13.74v11.7l16.553-.092v3.946H630.7v-34.224M658.637 125.286l4.263-.814s.498 6.755 9.204 6.755c5.353 0 8.39-2.494 8.39-5.85 0-4.216-5.214-5.85-9.705-7.21-6.666-2.034-10.293-4.566-10.293-9.872 0-5.623 5.305-8.843 11.835-8.843 9.84 0 11.744 7.3 11.744 7.3l-3.99 1.36s-1.407-4.94-7.754-4.94c-4.128 0-7.392 1.767-7.392 4.987 0 3.445 4.17 4.85 8.66 6.21 6.713 2.034 11.427 4.795 11.427 10.962 0 6.62-6.12 9.658-12.923 9.658-12.787 0-13.467-9.704-13.467-9.704" fill="#000105"/><mask id="b" fill="#fff"><use xlink:href="#a"/></mask><path d="M342.06 17.336c-2.727-.006-4.935-2.212-4.94-4.94.005-2.725 2.212-4.932 4.94-4.94 2.727.007 4.936 2.212 4.94 4.94-.004 2.726-2.21 4.933-4.94 4.94zm0-16.9C335.45.44 330.107 5.793 330.1 12.4c.007 6.603 5.35 11.955 11.96 11.958 6.61-.002 11.953-5.356 11.96-11.96C354.012 5.79 348.67.44 342.06.435zM288.826 16.935s5.392-.232 8.338-.232c4.884 0 8.218.62 10.466 2.48 1.938 1.707 3.024 4.032 3.024 7.134 0 4.187-2.016 6.668-4.42 7.908-2.867 1.472-7.164 1.472-12.748 1.472h-4.658l-.002-18.762zm9.945 27.835c.312 0 2.192-.077 2.657-.155l10.467 21.63h13.568l-13.492-24.5c6.203-2.558 10.78-8.605 10.78-15.35 0-8.452-3.645-14.345-11.32-17.058-4.11-1.63-8.84-2.093-14.81-2.093-8.76 0-19.648.31-19.648.31v58.692h11.863l-.005-21.476h9.94zM265.33 56.322l-28.352.003-.02-14.99 23.176.023v-9.38h-23.156l-.02-14.447 27.676.024V7.708h-39.52v58.538h40.216v-9.924zm-69.596 9.924l20.342-58.538h-11.176L188.52 54.63 171.586 7.708h-11.39l20.342 58.538h15.195zm-44.21-9.924l-28.545.077-.022-15.066 23.37.024v-9.38h-23.348l-.018-14.447 27.865.024V7.708h-39.71v58.538h40.406v-9.924zM74.584 7.708H62.643v58.538H101V55.933l-26.44.03.025-48.255zM27.06 57.872c-8.995 0-14.422-6.977-14.422-20.546 0-13.102 6.047-21.01 14.5-21.01 8.063 0 11.552 5.814 12.636 9.457l11.476-3.1c-1.938-6.513-8.452-16.05-24.036-16.05C10.467 6.624 0 19.572 0 37.56 0 56.088 8.917 67.64 27.06 67.64c16.745 0 23.18-10.85 24.888-18.064l-11.786-2.403c-.854 4.418-4.342 10.7-13.103 10.7z" fill="#000105" mask="url(#b)"/><path fill="#000105" d="M362.86 66.04h11.863l-.02-24.708 21.402.02v-9.69l-21.382.04-.004-14.017 24.642.02V7.476H362.86V66.04M437.827 33.988c-2.87 1.472-6.854 1.472-12.436 1.472h-3.848l-.003-18.76s4.27-.234 7.215-.234c4.884 0 8.218.62 10.466 2.482 1.94 1.705 3.025 4.03 3.025 7.132 0 4.185-2.016 6.667-4.418 7.908zm5.736 7.52c6.203-2.56 10.777-8.606 10.777-15.35 0-8.452-3.643-14.344-11.32-17.057-4.108-1.625-8.838-2.09-14.81-2.09-8.76 0-18.374.31-18.374.31v58.72h11.788l-.004-21.507h9.416c.308 0 1.517-.077 1.983-.157l10.467 21.663h13.566l-13.49-24.532zM563.84 50.346l-22.67-42.87h-16.5v58.563h11.722l-.402-44.303 23.44 44.302h16.027V7.474h-12.092l.476 42.87M657.71 41.097l22.125.023v-9.38l-22.105.003-.02-14.447 26.623.026V7.475h-38.34V66.04h39.038v-9.95l-27.3.003-.02-14.996M635.087 7.475h-14.732l-20.035 23.05-.004-23.05H588.68V66.04h11.632V45.855l6.4-7.45 16.823 27.633h15.043L614.695 30.5l20.392-23.025M482.208 41.477l7.174-25 7.132 25h-14.306zm15.06-34.31h-15.182l-18.99 58.872h12.07l4.364-15.235h19.645l4.303 15.11 12.87.124-19.08-58.874z"/></g></svg>
